<svg xmlns="http://www.w3.org/2000/svg" version="1.1" xmlns:xlink="http://www.w3.org/1999/xlink" xmlns:svgjs="http://svgjs.dev/svgjs" width="1500" height="1500" viewBox="0 0 1500 1500"><rect width="1500" height="1500" fill="#000000"></rect><g transform="matrix(0.6666666666666666,0,0,0.6666666666666666,249.39393939393938,438.5856950067477)"><svg viewBox="0 0 396 247" data-background-color="#0070b4" preserveAspectRatio="xMidYMid meet" height="935" width="1500" xmlns="http://www.w3.org/2000/svg" xmlns:xlink="http://www.w3.org/1999/xlink"><g id="tight-bounds" transform="matrix(1,0,0,1,0.2400000000000091,-0.09999999999999432)"><svg viewBox="0 0 395.52 247.2" height="247.2" width="395.52"><g><svg></svg></g><g><svg viewBox="0 0 395.52 247.2" height="247.2" width="395.52"><g transform="matrix(1,0,0,1,75.54432,94.35510350617075)"><svg viewBox="0 0 244.43135999999998 58.48979298765848" height="58.48979298765848" width="244.43135999999998"><g><svg viewBox="0 0 429.08613045002903 102.67569162932949" height="58.48979298765848" width="244.43135999999998"><g><rect width="5.3878020858736795" height="90.52376179034114" x="165.1627744220777" y="6.075964919494176" fill="#ffffff" opacity="1" stroke-width="0" stroke="transparent" fill-opacity="1" class="rect-qz-0" data-fill-palette-color="secondary" rx="1%" id="qz-0" data-palette-color="#ffffff"></rect></g><g transform="matrix(1,0,0,1,184.65477045002908,6.301148406534821)"><svg viewBox="0 0 244.43135999999998 90.07339481625985" height="90.07339481625985" width="244.43135999999998"><g id="textblocktransform"><svg viewBox="0 0 244.43135999999998 90.07339481625985" height="90.07339481625985" width="244.43135999999998" id="textblock"><g><svg viewBox="0 0 244.43135999999998 59.74429396498456" height="59.74429396498456" width="244.43135999999998"><g transform="matrix(1,0,0,1,0,0)"><svg width="244.43135999999998" viewBox="1.2 -35 145.64000000000001 35.6" height="59.74429396498456" data-palette-color="#ffffff"><path d="M34.15-30.85L18.2-8.25 34.55-8.25 34.55 0 1.2 0 1.2-3.55 17.15-26.15 2.4-26.15 2.4-34.4 34.15-34.4 34.15-30.85ZM54.25-35Q60.85-35 65.1-32.33 69.35-29.65 69.45-24.4L69.45-24.4 69.45-23.8 59.1-23.8 59.1-24Q59.1-25.5 58-26.5 56.9-27.5 54.65-27.5L54.65-27.5Q52.45-27.5 51.27-26.85 50.1-26.2 50.1-25.25L50.1-25.25Q50.1-23.9 51.7-23.25 53.3-22.6 56.85-21.9L56.85-21.9Q61-21.05 63.67-20.13 66.35-19.2 68.35-17.1 70.35-15 70.4-11.4L70.4-11.4Q70.4-5.3 66.27-2.35 62.15 0.6 55.25 0.6L55.25 0.6Q47.2 0.6 42.72-2.1 38.25-4.8 38.25-11.65L38.25-11.65 48.7-11.65Q48.7-9.05 50.05-8.18 51.4-7.3 54.25-7.3L54.25-7.3Q56.35-7.3 57.72-7.75 59.1-8.2 59.1-9.6L59.1-9.6Q59.1-10.85 57.57-11.48 56.05-12.1 52.6-12.8L52.6-12.8Q48.4-13.7 45.65-14.68 42.9-15.65 40.85-17.9 38.8-20.15 38.8-24L38.8-24Q38.8-29.65 43.17-32.33 47.55-35 54.25-35L54.25-35ZM110.65 0L98.95 0 97.5-4.85 85.45-4.85 84 0 72.7 0 85.25-34.4 98.1-34.4 110.65 0ZM91.4-24.8L87.75-12.55 95.2-12.55 91.6-24.8 91.4-24.8ZM130.29-35Q137.94-35 142.39-31.18 146.84-27.35 146.84-20.25L146.84-20.25 136.29-20.25Q136.29-23.25 134.72-25 133.14-26.75 130.24-26.75L130.24-26.75Q126.89-26.75 125.32-24.65 123.74-22.55 123.74-18.8L123.74-18.8 123.74-15.6Q123.74-11.9 125.32-9.78 126.89-7.65 130.14-7.65L130.14-7.65Q133.34-7.65 134.99-9.3 136.64-10.95 136.64-13.95L136.64-13.95 146.84-13.95Q146.84-6.9 142.52-3.15 138.19 0.6 130.29 0.6L130.29 0.6Q121.49 0.6 116.97-3.9 112.44-8.4 112.44-17.2L112.44-17.2Q112.44-26 116.97-30.5 121.49-35 130.29-35L130.29-35Z" opacity="1" transform="matrix(1,0,0,1,0,0)" fill="#ffffff" class="wordmark-text-0" data-fill-palette-color="primary" id="text-0"></path></svg></g></svg></g><g transform="matrix(1,0,0,1,0,73.84848790706225)"><svg viewBox="0 0 244.43135999999998 16.224906909197593" height="16.224906909197593" width="244.43135999999998"><g transform="matrix(1,0,0,1,0,0)"><svg width="244.43135999999998" viewBox="0.85 -36.15 681.63 45.25" height="16.224906909197593" data-palette-color="#ffffff"><path d="M0.85 0L0.85-3.4 18.2-28.15 2.15-28.15 2.15-34.3 28.85-34.3 28.85-30.85 11.55-6.15 29.3-6.15 29.3 0 0.85 0ZM42.65 0.6Q38.6 0.6 36.27-1.6 33.95-3.8 33.95-8.65L33.95-8.65 33.95-26.3 40.8-26.3 40.8-10.1Q40.8-7.65 41.95-6.55 43.1-5.45 45.35-5.45L45.35-5.45Q47.65-5.45 49.17-7.08 50.7-8.7 50.7-11.1L50.7-11.1 50.7-26.3 57.55-26.3 57.55 0 51.7 0 51.2-3.45 50.85-3.45Q47.65 0.6 42.65 0.6L42.65 0.6ZM64.64 0L64.64-26.3 70.5-26.3 71.05-22.05 71.39-22.05Q72.25-24.3 73.59-25.6 74.94-26.9 77.14-26.9L77.14-26.9Q78.59-26.9 79.75-26.45L79.75-26.45 79.75-20.05 77.84-20.05Q74.5-20.05 73-18.23 71.5-16.4 71.5-12.7L71.5-12.7 71.5 0 64.64 0ZM84.04-29.65L84.04-36.15 90.89-36.15 90.89-29.65 84.04-29.65ZM84.04 0L84.04-26.3 90.89-26.3 90.89 0 84.04 0ZM108.89 0.6Q102.59 0.6 99.47-2.75 96.34-6.1 96.34-13.15L96.34-13.15Q96.34-20.15 99.47-23.53 102.59-26.9 108.89-26.9L108.89-26.9Q114.14-26.9 117.27-24.23 120.39-21.55 120.39-16.4L120.39-16.4 113.49-16.4Q113.49-18.8 112.24-20.1 110.99-21.4 108.74-21.4L108.74-21.4Q105.94-21.4 104.62-19.43 103.29-17.45 103.29-13.55L103.29-13.55 103.29-12.75Q103.29-8.85 104.67-6.88 106.04-4.9 109.09-4.9L109.09-4.9Q111.24-4.9 112.52-6.23 113.79-7.55 113.79-9.9L113.79-9.9 120.39-9.9Q120.39-4.75 117.29-2.08 114.19 0.6 108.89 0.6L108.89 0.6ZM125.79 0L125.79-36.15 132.64-36.15 132.64-23.25 132.99-23.25Q135.99-26.9 140.69-26.9L140.69-26.9Q144.74-26.9 147.06-24.7 149.39-22.5 149.39-17.65L149.39-17.65 149.39 0 142.54 0 142.54-16.2Q142.54-18.65 141.39-19.75 140.24-20.85 137.99-20.85L137.99-20.85Q135.69-20.85 134.16-19.23 132.64-17.6 132.64-15.2L132.64-15.2 132.64 0 125.79 0ZM183.18 0.6Q179.23 0.6 175.96-0.63 172.68-1.85 170.73-4.25 168.78-6.65 168.78-10.05L168.78-10.05 168.83-11.15 176.18-11.15 176.13-10.35Q176.13-8.15 178.08-6.85 180.03-5.55 183.53-5.55L183.53-5.55Q187.23-5.55 188.88-6.53 190.53-7.5 190.53-9.15L190.53-9.15Q190.53-10.6 189.46-11.58 188.38-12.55 186.76-13.13 185.13-13.7 182.28-14.5L182.28-14.5Q178.23-15.65 175.73-16.7 173.23-17.75 171.43-19.83 169.63-21.9 169.63-25.3L169.63-25.3Q169.63-30 173.43-32.45 177.23-34.9 183.53-34.9L183.53-34.9Q189.48-34.9 193.26-32.38 197.03-29.85 197.03-24.8L197.03-24.8 197.03-24.2 189.83-24.2 189.83-24.65Q189.83-26.55 188.11-27.65 186.38-28.75 183.43-28.75L183.43-28.75Q180.28-28.75 178.61-27.9 176.93-27.05 176.93-25.55L176.93-25.55Q176.93-24.4 177.93-23.58 178.93-22.75 180.43-22.23 181.93-21.7 184.68-20.95L184.68-20.95Q188.78-19.85 191.41-18.78 194.03-17.7 195.93-15.6 197.83-13.5 197.83-10.1L197.83-10.1Q197.83-4.6 193.91-2 189.98 0.6 183.18 0.6L183.18 0.6ZM203.58 8.65L203.58-26.3 209.43-26.3 209.88-22.85 210.23-22.85Q211.48-24.85 213.58-25.88 215.68-26.9 218.23-26.9L218.23-26.9Q223.23-26.9 225.98-23.48 228.73-20.05 228.73-13.1L228.73-13.1Q228.73-6.3 225.96-2.85 223.18 0.6 218.58 0.6L218.58 0.6Q215.93 0.6 213.91-0.35 211.88-1.3 210.73-3.05L210.73-3.05 210.43-3.05 210.43 8.65 203.58 8.65ZM216.03-5.35Q219.08-5.35 220.38-7.18 221.68-9 221.68-12.7L221.68-12.7 221.68-13.6Q221.68-17.3 220.38-19.13 219.08-20.95 216.03-20.95L216.03-20.95Q210.43-20.95 210.43-13.6L210.43-13.6 210.43-12.8Q210.43-5.35 216.03-5.35L216.03-5.35ZM245.83 0.6Q239.08 0.6 235.78-2.75 232.48-6.1 232.48-13.15L232.48-13.15Q232.48-20.2 235.78-23.55 239.08-26.9 245.83-26.9L245.83-26.9Q252.58-26.9 255.9-23.55 259.23-20.2 259.23-13.15L259.23-13.15Q259.23-6.1 255.9-2.75 252.58 0.6 245.83 0.6L245.83 0.6ZM245.83-5Q249.18-5 250.68-6.93 252.18-8.85 252.18-12.75L252.18-12.75 252.18-13.55Q252.18-17.45 250.68-19.38 249.18-21.3 245.83-21.3L245.83-21.3Q242.48-21.3 241-19.38 239.53-17.45 239.53-13.55L239.53-13.55 239.53-12.75Q239.53-8.85 241-6.93 242.48-5 245.83-5L245.83-5ZM264.68 0L264.68-26.3 270.53-26.3 271.08-22.05 271.43-22.05Q272.28-24.3 273.63-25.6 274.98-26.9 277.18-26.9L277.18-26.9Q278.63-26.9 279.78-26.45L279.78-26.45 279.78-20.05 277.88-20.05Q274.53-20.05 273.03-18.23 271.53-16.4 271.53-12.7L271.53-12.7 271.53 0 264.68 0ZM291.17 0.6Q287.47 0.6 285.87-1.4 284.27-3.4 284.27-6.45L284.27-6.45 284.27-20.7 281.12-20.7 281.12-26.3 284.42-26.3 285.57-33.7 291.12-33.7 291.12-26.3 295.67-26.3 295.67-20.7 291.12-20.7 291.12-7.15Q291.12-5 293.27-5L293.27-5 295.67-5 295.67-0.2Q294.82 0.1 293.55 0.35 292.27 0.6 291.17 0.6L291.17 0.6ZM311.27 0.6Q305.77 0.6 302.65-1.68 299.52-3.95 299.52-7.75L299.52-7.75 299.57-8.35 306.22-8.35 306.22-8Q306.27-6.25 307.8-5.48 309.32-4.7 311.52-4.7L311.52-4.7Q313.57-4.7 315.02-5.25 316.47-5.8 316.47-7.05L316.47-7.05Q316.47-8.45 315-9.15 313.52-9.85 310.37-10.55L310.37-10.55Q307.12-11.3 305.07-12.08 303.02-12.85 301.52-14.5 300.02-16.15 300.02-18.9L300.02-18.9Q300.02-22.75 303.25-24.83 306.47-26.9 311.57-26.9L311.57-26.9Q316.32-26.9 319.42-24.98 322.52-23.05 322.52-19.75L322.52-19.75 322.47-18.6 315.82-18.6 315.82-18.9Q315.82-20.2 314.6-20.9 313.37-21.6 311.32-21.6L311.32-21.6Q309.27-21.6 308.07-21.05 306.87-20.5 306.87-19.5L306.87-19.5Q306.87-18.25 308.25-17.65 309.62-17.05 312.67-16.45L312.67-16.45Q316.02-15.7 318.12-14.95 320.22-14.2 321.77-12.5 323.32-10.8 323.32-7.9L323.32-7.9Q323.32 0.6 311.27 0.6L311.27 0.6ZM337.17 0L350.56-34.3 359.67-34.3 373.06 0 365.17 0 362.71-6.55 347.12-6.55 344.67 0 337.17 0ZM349.37-12.6L360.42-12.6 357.17-21.3Q356.56-22.9 355.01-28.05L355.01-28.05 354.76-28.05Q353.21-22.9 352.62-21.3L352.62-21.3 349.37-12.6ZM376.71 0L376.71-26.3 382.56-26.3 383.06-22.85 383.41-22.85Q386.61-26.9 391.61-26.9L391.61-26.9Q395.66-26.9 397.99-24.7 400.31-22.5 400.31-17.65L400.31-17.65 400.31 0 393.46 0 393.46-16.2Q393.46-18.65 392.31-19.75 391.16-20.85 388.91-20.85L388.91-20.85Q386.61-20.85 385.09-19.23 383.56-17.6 383.56-15.2L383.56-15.2 383.56 0 376.71 0ZM413.31 0.6Q410.26 0.6 407.71-1 405.16-2.6 405.16-6.8L405.16-6.8Q405.16-11.85 409.31-13.98 413.46-16.1 421.06-16.1L421.06-16.1 421.06-17.95Q421.06-19.7 420.29-20.65 419.51-21.6 417.36-21.6L417.36-21.6Q415.06-21.6 414.09-20.9 413.11-20.2 413.11-19.25L413.11-19.25 413.11-18.5 406.51-18.5Q406.46-18.8 406.46-19.6L406.46-19.6Q406.46-22.9 409.39-24.9 412.31-26.9 417.16-26.9L417.16-26.9Q422.56-26.9 425.24-24.7 427.91-22.5 427.91-18.35L427.91-18.35 427.91-6.75Q427.91-5.85 428.41-5.43 428.91-5 429.66-5L429.66-5 431.06-5 431.06-0.2Q429.46 0.6 427.11 0.6L427.11 0.6Q425.06 0.6 423.69-0.3 422.31-1.2 421.81-2.85L421.81-2.85 421.51-2.85Q420.06-1.15 418.19-0.28 416.31 0.6 413.31 0.6L413.31 0.6ZM415.46-4.8Q418.36-4.8 419.71-6.43 421.06-8.05 421.06-10.75L421.06-10.75 421.06-11.55Q412.11-11.55 412.11-7.55L412.11-7.55Q412.11-6.3 412.94-5.55 413.76-4.8 415.46-4.8L415.46-4.8ZM435.06 0L435.06-36.15 441.91-36.15 441.91 0 435.06 0ZM452.96 9.1Q450.21 9.1 448.26 8.45L448.26 8.45 448.26 3.65 451.51 3.65Q453.26 3.65 454.36 2.8 455.46 1.95 456.16 0L456.16 0 445.86-26.3 453.01-26.3 457.96-13.95Q458.71-12 459.81-7.1L459.81-7.1 460.06-7.1Q461.26-11.7 461.91-13.9L461.91-13.9 465.81-26.3 472.76-26.3 463.91-1.35Q462.71 1.95 461.41 4.17 460.11 6.4 458.03 7.75 455.96 9.1 452.96 9.1L452.96 9.1ZM483.8 0.6Q480.1 0.6 478.5-1.4 476.9-3.4 476.9-6.45L476.9-6.45 476.9-20.7 473.75-20.7 473.75-26.3 477.05-26.3 478.2-33.7 483.75-33.7 483.75-26.3 488.3-26.3 488.3-20.7 483.75-20.7 483.75-7.15Q483.75-5 485.9-5L485.9-5 488.3-5 488.3-0.2Q487.45 0.1 486.18 0.35 484.9 0.6 483.8 0.6L483.8 0.6ZM493.35-29.65L493.35-36.15 500.2-36.15 500.2-29.65 493.35-29.65ZM493.35 0L493.35-26.3 500.2-26.3 500.2 0 493.35 0ZM518.2 0.6Q511.9 0.6 508.77-2.75 505.65-6.1 505.65-13.15L505.65-13.15Q505.65-20.15 508.77-23.53 511.9-26.9 518.2-26.9L518.2-26.9Q523.45-26.9 526.57-24.23 529.7-21.55 529.7-16.4L529.7-16.4 522.8-16.4Q522.8-18.8 521.55-20.1 520.3-21.4 518.05-21.4L518.05-21.4Q515.25-21.4 513.92-19.43 512.6-17.45 512.6-13.55L512.6-13.55 512.6-12.75Q512.6-8.85 513.97-6.88 515.35-4.9 518.4-4.9L518.4-4.9Q520.55-4.9 521.82-6.23 523.1-7.55 523.1-9.9L523.1-9.9 529.7-9.9Q529.7-4.75 526.6-2.08 523.5 0.6 518.2 0.6L518.2 0.6ZM545.59 0.6Q540.09 0.6 536.97-1.68 533.84-3.95 533.84-7.75L533.84-7.75 533.89-8.35 540.54-8.35 540.54-8Q540.59-6.25 542.12-5.48 543.64-4.7 545.84-4.7L545.84-4.7Q547.89-4.7 549.34-5.25 550.79-5.8 550.79-7.05L550.79-7.05Q550.79-8.45 549.32-9.15 547.84-9.85 544.69-10.55L544.69-10.55Q541.44-11.3 539.39-12.08 537.34-12.85 535.84-14.5 534.34-16.15 534.34-18.9L534.34-18.9Q534.34-22.75 537.57-24.83 540.79-26.9 545.89-26.9L545.89-26.9Q550.64-26.9 553.75-24.98 556.84-23.05 556.84-19.75L556.84-19.75 556.79-18.6 550.14-18.6 550.14-18.9Q550.14-20.2 548.92-20.9 547.69-21.6 545.64-21.6L545.64-21.6Q543.59-21.6 542.39-21.05 541.19-20.5 541.19-19.5L541.19-19.5Q541.19-18.25 542.57-17.65 543.94-17.05 547-16.45L547-16.45Q550.34-15.7 552.44-14.95 554.54-14.2 556.09-12.5 557.64-10.8 557.64-7.9L557.64-7.9Q557.64 0.6 545.59 0.6L545.59 0.6ZM591.94 0.6Q575.34 0.6 575.34-17.15L575.34-17.15Q575.34-26.05 579.69-30.48 584.04-34.9 591.94-34.9L591.94-34.9Q596.29-34.9 599.76-33.43 603.24-31.95 605.26-28.93 607.29-25.9 607.29-21.55L607.29-21.55 599.84-21.55Q599.84-24.9 597.69-26.83 595.54-28.75 592.09-28.75L592.09-28.75Q587.39-28.75 585.09-25.95 582.79-23.15 582.79-17.9L582.79-17.9 582.79-16.4Q582.79-5.55 592.09-5.55L592.09-5.55Q595.74-5.55 597.91-7.45 600.09-9.35 600.09-12.7L600.09-12.7 607.29-12.7Q607.29-8.3 605.29-5.33 603.29-2.35 599.84-0.88 596.39 0.6 591.94 0.6L591.94 0.6ZM612.89 0L612.89-36.15 619.74-36.15 619.74 0 612.89 0ZM635.33 0.6Q631.28 0.6 628.96-1.6 626.63-3.8 626.63-8.65L626.63-8.65 626.63-26.3 633.48-26.3 633.48-10.1Q633.48-7.65 634.63-6.55 635.78-5.45 638.03-5.45L638.03-5.45Q640.33-5.45 641.86-7.08 643.38-8.7 643.38-11.1L643.38-11.1 643.38-26.3 650.23-26.3 650.23 0 644.38 0 643.88-3.45 643.53-3.45Q640.33 0.6 635.33 0.6L635.33 0.6ZM671.98 0.6Q669.43 0.6 667.33-0.43 665.23-1.45 663.98-3.45L663.98-3.45 663.63-3.45 663.18 0 657.33 0 657.33-36.15 664.18-36.15 664.18-23.25 664.48-23.25Q665.63-25 667.66-25.95 669.68-26.9 672.33-26.9L672.33-26.9Q676.93-26.9 679.71-23.45 682.48-20 682.48-13.2L682.48-13.2Q682.48-6.25 679.73-2.83 676.98 0.6 671.98 0.6L671.98 0.6ZM669.78-5.35Q672.83-5.35 674.13-7.18 675.43-9 675.43-12.7L675.43-12.7 675.43-13.6Q675.43-17.3 674.13-19.13 672.83-20.95 669.78-20.95L669.78-20.95Q664.18-20.95 664.18-13.5L664.18-13.5 664.18-12.7Q664.18-5.35 669.78-5.35L669.78-5.35Z" opacity="1" transform="matrix(1,0,0,1,0,0)" fill="#ffffff" class="slogan-text-1" data-fill-palette-color="secondary" id="text-1"></path></svg></g></svg></g></svg></g></svg></g><g><svg viewBox="0 0 151.05858048 102.67569162932949" height="102.67569162932949" width="151.05858048"><g><svg xmlns="http://www.w3.org/2000/svg" viewBox="31.969520850714563 88.364 447.6574791492855 340.323" x="8" y="0" height="102.67569162932949" width="135.05858048" class="icon-icon-0" data-fill-palette-color="accent" id="icon-0"><g fill="#ffffff" data-fill-palette-color="accent"><polygon points="209.232 344 219.607 312.072 192.447 292.339 165.287 312.072 175.662 344 209.232 344" fill="#ffffff" data-fill-palette-color="accent"></polygon><rect x="131.337" y="218.497" width="16.005" height="16.003" transform="translate(-121.133 280.079) rotate(-70.024)" fill="#ffffff" data-fill-palette-color="accent"></rect><path d="M128.438 248.075l-4.819-1.752-2.731 7.515a7.993 7.993 0 0 1-1.1 2.025c0.19 0.089 0.376 0.184 0.566 0.273A95.951 95.951 0 0 1 128.438 248.075Z" fill="#ffffff" data-fill-palette-color="accent"></path><path d="M264.3 285.728a79.885 79.885 0 0 0-62.02-45.073c-0.73-0.095-1.468-0.175-2.207-0.249l0.337 37.943 29.395 21.357Z" fill="#ffffff" data-fill-palette-color="accent"></path><path d="M194.477 145.068l-2.517 6.923L207 157.457l0.355-0.974A82.673 82.673 0 0 0 194.477 145.068Z" fill="#ffffff" data-fill-palette-color="accent"></path><path d="M154.768 299.938L184.411 278.4l-0.337-38.007a78.732 78.732 0 0 0-29.693 8.992q-2.535 1.34-5.063 2.951a79.989 79.989 0 0 0-29.611 33.394Z" fill="#ffffff" data-fill-palette-color="accent"></path><rect x="183.28" y="169.28" width="16" height="15.999" transform="translate(-40.681 296.486) rotate(-70.024)" fill="#ffffff" data-fill-palette-color="accent"></rect><path d="M222.046 179.951l-5.479-1.991L211.1 193l15.159 5.51A64.778 64.778 0 0 0 222.046 179.951Z" fill="#ffffff" data-fill-palette-color="accent"></path><path d="M100.369 169.77l-19.52-7.1a57.372 57.372 0 0 0-5.465 15.039l19.52 7.095Z" fill="#ffffff" data-fill-palette-color="accent"></path><path d="M444 246.98A104.1 104.1 0 0 1 416.312 184H400v69.149l18.6 6.762A88.4 88.4 0 0 0 444 246.98Z" fill="#ffffff" data-fill-palette-color="accent"></path><path d="M444 105.023a87.732 87.732 0 0 0-44-16.659V168h16.312A104.2 104.2 0 0 1 444 105.023Z" fill="#ffffff" data-fill-palette-color="accent"></path><path d="M479.627 168A88.118 88.118 0 0 0 456 115.617 88.178 88.178 0 0 0 432.373 168Z" fill="#ffffff" data-fill-palette-color="accent"></path><path d="M384 168V88.364a87.722 87.722 0 0 0-44 16.658A104.233 104.233 0 0 1 367.688 168Z" fill="#ffffff" data-fill-palette-color="accent"></path><path d="M328.006 115.617A88.118 88.118 0 0 0 304.373 168h47.253A88.2 88.2 0 0 0 328.006 115.617Z" fill="#ffffff" data-fill-palette-color="accent"></path><path d="M149.428 315.037l-35.106-14.224c-0.044 0.18-0.094 0.36-0.136 0.54a80.121 80.121 0 0 0 22.977 76.889l23.7-28.008Z" fill="#ffffff" data-fill-palette-color="accent"></path><rect x="172.349" y="199.354" width="15.999" height="16.001" transform="translate(-76.141 306.017) rotate(-70.025)" fill="#ffffff" data-fill-palette-color="accent"></rect><path d="M78.494 212.894l5.479 1.994 5.467-15.042-15.162-5.511A64.777 64.777 0 0 0 78.494 212.894Z" fill="#ffffff" data-fill-palette-color="accent"></path><path d="M328.622 235.718a87.019 87.019 0 0 0 23-51.718H304.368a87.456 87.456 0 0 0 22.443 51.06Z" fill="#ffffff" data-fill-palette-color="accent"></path><path d="M200.172 223.071l5.088 1.85a95.518 95.518 0 0 1 15.353 3.431 57.377 57.377 0 0 0 4.543-13.222l-19.519-7.095Z" fill="#ffffff" data-fill-palette-color="accent"></path><path d="M261.766 376l-14.8 44.41 4.6-3.066a8 8 0 0 1 10.095 1L272 428.687l10.343-10.344a8 8 0 0 1 10.095-1l4.6 3.066L282.234 376Z" fill="#ffffff" data-fill-palette-color="accent"></path><path d="M319.192 249.309l-47.115-17.12a8 8 0 0 1-5.129-9c4.586-24.3-0.906-50.212-15.464-72.968-14.87-23.245-38.2-41.549-65.686-51.54-62.191-22.605-128.72 2.851-148.31 56.744-18.126 49.87 9.751 106.764 63.823 133.05 0.127-0.364 0.247-0.73 0.378-1.092a95.406 95.406 0 0 1 8.876-18.209 100.336 100.336 0 0 1-32.707-26.078c-19-23.277-24.728-52.647-15.306-78.558 9.4-25.892 32.649-44.732 62.182-50.393l0.174-0.031a101.6 101.6 0 0 1 53.605 4.619A106.379 106.379 0 0 1 194.3 125.98a99.471 99.471 0 0 1 28.381 23.761c19.009 23.294 24.731 52.663 15.309 78.564-0.748 2.062-1.611 4.083-2.542 6.073a96.631 96.631 0 0 1 22.092 15.5 7.992 7.992 0 0 1 9.075-2.655l83.932 30.507 5.464-15.033-36.53-13.277C319.382 249.384 319.287 249.347 319.192 249.309Z" fill="#ffffff" data-fill-palette-color="accent"></path><path d="M365.609 243.141a8 8 0 0 1 6.118-0.269L384 247.333V184H367.7a102.771 102.771 0 0 1-22.967 57.574l16.741 6.085v0A8 8 0 0 1 365.609 243.141Z" fill="#ffffff" data-fill-palette-color="accent"></path><path d="M264 352v8h16v-8a8 8 0 0 0-16 0Z" fill="#ffffff" data-fill-palette-color="accent"></path><polygon points="391.93 267.24 410.756 307.568 434.602 316.236 415.777 275.908 391.93 267.24" fill="#ffffff" data-fill-palette-color="accent"></polygon><polygon points="455.868 323.966 460.771 325.748 471.521 296.171 437.042 283.638 455.868 323.966" fill="#ffffff" data-fill-palette-color="accent"></polygon><path d="M456 236.383A88.178 88.178 0 0 0 479.626 184H432.372A88.085 88.085 0 0 0 456 236.383Z" fill="#ffffff" data-fill-palette-color="accent"></path><polygon points="363.028 290.219 389.49 299.838 372.647 263.757 363.028 290.219" fill="#ffffff" data-fill-palette-color="accent"></polygon><path d="M165.081 131.287a8.016 8.016 0 0 1-0.465 2.252l-2.733 7.519 15.041 5.467 3.518-9.679c-2.415-1.128-4.883-2.164-7.4-3.078Q169.1 132.333 165.081 131.287Z" fill="#ffffff" data-fill-palette-color="accent"></path><path d="M248 352a24.024 24.024 0 0 1 23.6-23.99c0.263-2.65 0.4-5.326 0.4-8.01a80.034 80.034 0 0 0-2.333-19.182L235.6 314.62 223.782 351l21.13 24.967L248 366.7Z" fill="#ffffff" data-fill-palette-color="accent"></path><path d="M132.153 129.152l-0.352 0.971 15.045 5.469 2.521-6.936A82.83 82.83 0 0 0 132.153 129.152Z" fill="#ffffff" data-fill-palette-color="accent"></path><path d="M173.56 360l-23.7 28a79.979 79.979 0 0 0 84.273 0l-23.7-28Z" fill="#ffffff" data-fill-palette-color="accent"></path><rect x="153.205" y="158.346" width="15.999" height="16.004" transform="translate(-50.207 261.023) rotate(-70.024)" fill="#ffffff" data-fill-palette-color="accent"></rect><rect x="123.126" y="147.41" width="16" height="16.006" transform="translate(-59.734 225.556) rotate(-70.024)" fill="#ffffff" data-fill-palette-color="accent"></rect><rect x="142.273" y="188.42" width="16" height="16.004" transform="translate(-85.668 270.553) rotate(-70.025)" fill="#ffffff" data-fill-palette-color="accent"></rect><path d="M106.058 247.8l2.524-6.944-15.046-5.469-0.352 0.969A83.041 83.041 0 0 0 106.058 247.8Z" fill="#ffffff" data-fill-palette-color="accent"></path><rect x="112.194" y="177.487" width="16" height="16.004" transform="matrix(0.342, -0.94, 0.94, 0.342, -95.196, 235.086)" fill="#ffffff" data-fill-palette-color="accent"></rect><rect x="101.26" y="207.566" width="16.005" height="16.001" transform="translate(-130.661 244.614) rotate(-70.024)" fill="#ffffff" data-fill-palette-color="accent"></rect><path d="M90.68 149.224l15.153 5.508 5.465-15.038-5.466-1.986A64.83 64.83 0 0 0 90.68 149.224Z" fill="#ffffff" data-fill-palette-color="accent"></path></g></svg></g></svg></g></svg></g></svg></g><g><path d="M0 123.6c0-68.262 55.338-123.6 123.6-123.6 56.739 0 104.548 38.231 119.073 90.338h-1.594c-14.482-51.249-61.594-88.803-117.479-88.803-67.415 0-122.065 54.651-122.065 122.065 0 67.415 54.651 122.065 122.065 122.065 55.884 0 102.997-37.554 117.479-88.803h1.594c-14.525 52.107-62.334 90.338-119.073 90.338-68.262 0-123.6-55.338-123.6-123.6z" fill="#ffffff" stroke="transparent" data-fill-palette-color="tertiary"></path></g></svg></g><defs></defs></svg><rect width="395.52" height="247.2" fill="none" stroke="none" visibility="hidden"></rect></g></svg></g></svg>